# xmcd
#
# Track frame offsets: 
#        150
#        20562
#        34175
#        56620
#        74200
#        90262
#        105317
#        120062
#        135105
#        156167
#        171077
#        187497
#        202262
#        220547
#        232737
#        250802
#        273775
#        294767
#        306405
#
# Disc length: 4349 seconds
#
# Revision: 12
# Processed by: cddbd v1.5.2PL0 Copyright (c) Steve Scherf et al.
# Submitted via: ExactAudioCopy v1.3
#
DISCID=0210fb13
DTITLE=Julio Iglesias - My Life: The Greatest Hits [CD2)
DYEAR=1998
DGENRE=Pop
TTITLE0=Un Canto A Galicia
TTITLE1=Soy Un Truhan, Soy Un Seňor
TTITLE2=Hey
TTITLE3=Ou Est Passée Ma Boheme (Quiereme Mucho)
TTITLE4=Momentos
TTITLE5=Amor
TTITLE6=De Niňa A Mujer
TTITLE7=Que Nadie Sepa Mi Sufrir
TTITLE8=Volver A Empezar (Begin The Beguine)
TTITLE9=Ae, Ao
TTITLE10=Manuela
TTITLE11=Abrazame
TTITLE12=Milonga (Medley)
TTITLE13=A Media Luz
TTITLE14=Ni Te Tengo Ni Te Olvido
TTITLE15=La Carretera
TTITLE16=Bamboleo
TTITLE17=La Cumparsita
TTITLE18=Agua Dulce, Agua Sala
EXTD=YEAR: 1998
EXTT0=
EXTT1=
EXTT2=
EXTT3=
EXTT4=
EXTT5=
EXTT6=
EXTT7=
EXTT8=
EXTT9=
EXTT10=
EXTT11=
EXTT12=
EXTT13=
EXTT14=
EXTT15=
EXTT16=
EXTT17=
EXTT18=
PLAYORDER=
